<svg xmlns="http://www.w3.org/2000/svg" xmlns:xlink="http://www.w3.org/1999/xlink" viewBox="0 0 374.67 333.6"><defs><style>.cls-1{isolation:isolate;}.cls-2{fill:url(#linear-gradient);}.cls-3,.cls-4,.cls-7{mix-blend-mode:multiply;}.cls-3{fill:url(#linear-gradient-2);}.cls-4{fill:url(#linear-gradient-3);}.cls-5{fill:url(#linear-gradient-4);}.cls-6{fill:url(#linear-gradient-5);}.cls-7{fill:url(#linear-gradient-6);}.cls-8{fill:url(#linear-gradient-7);}</style><linearGradient id="linear-gradient" x1="309.8" y1="-5.88" x2="432.8" y2="231.12" gradientTransform="matrix(0.87, 0.5, -0.5, 0.87, -30.78, -143.27)" gradientUnits="userSpaceOnUse"><stop offset="0" stop-color="#008aca"/><stop offset="1" stop-color="#00aeee"/></linearGradient><linearGradient id="linear-gradient-2" x1="-1818.16" y1="1528.65" x2="-1832.33" y2="1455.27" gradientTransform="translate(2386.94 1067.02) rotate(59.1)" gradientUnits="userSpaceOnUse"><stop offset="0" stop-color="#282525"/><stop offset="1" stop-color="#fff"/></linearGradient><linearGradient id="linear-gradient-3" x1="-1753.5" y1="1391.26" x2="-1766.73" y2="1322.74" gradientTransform="translate(-1767.76 -791.57) rotate(-116.97)" xlink:href="#linear-gradient-2"/><linearGradient id="linear-gradient-4" x1="191.64" y1="24.82" x2="314.64" y2="261.82" gradientTransform="translate(118.53 -110.22) rotate(30)" xlink:href="#linear-gradient"/><linearGradient id="linear-gradient-5" x1="142.16" y1="82" x2="322.74" y2="82" gradientTransform="matrix(-0.49, -0.87, 0.87, -0.49, 304.13, 565.62)" gradientUnits="userSpaceOnUse"><stop offset="0" stop-color="#0095da"/><stop offset="0.5" stop-color="#00aeee"/><stop offset="1" stop-color="#2bc4f3"/></linearGradient><linearGradient id="linear-gradient-6" x1="-1699.28" y1="1500.87" x2="-1713.45" y2="1427.48" gradientTransform="translate(-1461.96 1565.96) rotate(178.6)" xlink:href="#linear-gradient-2"/><linearGradient id="linear-gradient-7" x1="0" y1="165.81" x2="240.69" y2="165.81" gradientTransform="matrix(1, 0, 0, 1, 0, 0)" xlink:href="#linear-gradient-5"/></defs><g class="cls-1"><g id="Layer_2" data-name="Layer 2"><g id="Layer_4" data-name="Layer 4"><rect class="cls-2" x="202.82" y="-21.51" width="60.99" height="374.06" rx="30.49" transform="translate(350.33 426.56) rotate(-149.5)"/><path class="cls-3" d="M129.31,284.12s44.8,32.56,48.58,39.36l35.61-65.07-32-66.2Z"/><path class="cls-4" d="M278.84,149.62S242,104.76,238.68,97.71L200.54,162l27.39,74.14Z"/><rect class="cls-5" x="234.45" y="-20.97" width="60.99" height="374.06" rx="30.49" transform="translate(-47.54 154.72) rotate(-30)"/><path class="cls-6" d="M374.67,303.37h0a30.5,30.5,0,0,0-30.23-30.76l-137.13-2.27c-63.57,2.25-51.77-33-51.77-33s-33.1,47.83-32.17,62.72c.27,17.18,13,30.63,31.59,30.77l189,2.73A30.51,30.51,0,0,0,374.67,303.37Z"/><path class="cls-7" d="M212.93,17.14s-50.4,23-58.19,22.9l39.1,63,73.39,4.74Z"/><path class="cls-8" d="M15.25,327.46h0A30.49,30.49,0,0,0,56.91,316.3L186.51,91.82C215.85,35.37,240.69,63,240.69,63S215.35,10.62,201.94,4.1C186.85-4.13,168.85.38,159.61,16.45L4.09,285.81A30.49,30.49,0,0,0,15.25,327.46Z"/></g></g></g></svg>